
<svg xmlns="http://www.w3.org/2000/svg"
     width="300px"
    viewBox="0 0 847 1058.8"  class="logo">

<style>

.cooking {
  fill: #76D7C4;
}

.cooking:hover {
  fill: #fff;
}
</style>

  <path class="cooking" d="M137 681c-81-31-78-121-99-191-4-10 5-21 16-21l461 0c14 0 19 12 16 24 82-39 171-65 263-60 9 1 16 9 16 18-3 36-26 86-68 84-113 3-159 86-205 86l-41 0c-13 26-32 48-65 61l-294-1zm139-499c-3-19 26-24 30-5 24 139-114 146-119 251 0 20-30 19-29-1 5-120 139-126 118-245zm168 117c-3-19 26-24 29-5 13 78-60 83-63 134 0 20-30 19-29-1 3-66 73-70 63-128zm-69-58c-3-19 26-24 29-5 19 109-87 114-90 192-1 20-30 19-30-1 4-93 106-98 91-186z"/>

  </svg>
